<?xml version="1.0" encoding="iso-8859-1"?>
<!-- Uploaded to: SVG Repo, www.svgrepo.com, Generator: SVG Repo Mixer Tools -->
<svg fill="#000000" height="800px" width="800px" version="1.1" id="Layer_1" xmlns="http://www.w3.org/2000/svg" xmlns:xlink="http://www.w3.org/1999/xlink" 
	 viewBox="0 0 512 512" xml:space="preserve">
<g>
	<g>
		<path d="M431.288,28.77h-85.25V7.742c0-4.276-3.465-7.742-7.742-7.742H173.702c-4.277,0-7.742,3.466-7.742,7.742V28.77H80.712
			c-4.277,0-7.742,3.466-7.742,7.742v467.746c0,4.276,3.465,7.742,7.742,7.742h350.577c4.277,0,7.742-3.466,7.742-7.742V36.512
			C439.03,32.237,435.564,28.77,431.288,28.77z M181.444,15.484h149.111v68.358H181.444V15.484z M173.702,99.325h164.595
			c4.277,0,7.742-3.466,7.742-7.742V72.902h38.542v383.784H127.42V72.902h38.541v18.682
			C165.96,95.859,169.426,99.325,173.702,99.325z M88.454,496.516V44.254h77.507v13.163h-46.283c-4.277,0-7.742,3.466-7.742,7.742
			v399.268c0,4.276,3.465,7.742,7.742,7.742h272.645c4.277,0,7.742-3.466,7.742-7.742V65.16c0-4.276-3.465-7.742-7.742-7.742
			h-46.284V44.254h77.508v452.262H88.454z"/>
	</g>
</g>
<g>
	<g>
		<path d="M353.065,127.34H210.788c-4.277,0-7.742,3.466-7.742,7.742v34.406c0,4.276,3.466,7.742,7.742,7.742h142.277
			c4.277,0,7.742-3.466,7.742-7.742v-34.406C360.807,130.806,357.342,127.34,353.065,127.34z M345.323,161.747H218.53v-18.922
			h126.793V161.747z"/>
	</g>
</g>
<g>
	<g>
		<path d="M353.065,202.597H210.788c-4.277,0-7.742,3.466-7.742,7.742v34.407c0,4.276,3.466,7.742,7.742,7.742h142.277
			c4.277,0,7.742-3.466,7.742-7.742v-34.407C360.807,206.064,357.342,202.597,353.065,202.597z M345.323,237.006H218.53v-18.923
			h126.793V237.006z"/>
	</g>
</g>
<g>
	<g>
		<path d="M354.734,277.856H212.459c-4.277,0-7.742,3.466-7.742,7.742v34.407c0,4.276,3.465,7.742,7.742,7.742h142.276
			c4.277,0,7.742-3.466,7.742-7.742v-34.407C362.477,281.322,359.01,277.856,354.734,277.856z M346.993,312.262H220.201v-18.923
			h126.792V312.262z"/>
	</g>
</g>
<g>
	<g>
		<path d="M354.734,359.473H212.459c-4.277,0-7.742,3.466-7.742,7.742v34.407c0,4.276,3.465,7.742,7.742,7.742h142.276
			c4.277,0,7.742-3.466,7.742-7.742v-34.407C362.477,362.939,359.01,359.473,354.734,359.473z M346.993,393.879H220.201v-18.923
			h126.792V393.879z"/>
	</g>
</g>
<g>
	<g>
		<path d="M190.681,129.608c-3.023-3.023-7.925-3.023-10.949,0l-19.923,19.923l-9.179-9.178c-3.025-3.023-7.926-3.023-10.949,0
			s-3.023,7.926,0,10.948l14.652,14.652c1.512,1.512,3.493,2.268,5.475,2.268c1.981,0,3.963-0.756,5.475-2.268l25.398-25.397
			C193.704,137.533,193.704,132.63,190.681,129.608z"/>
	</g>
</g>
<g>
	<g>
		<path d="M190.681,204.865c-3.026-3.022-7.927-3.022-10.95,0l-19.923,19.923l-9.178-9.178c-3.025-3.024-7.927-3.025-10.948,0
			c-3.025,3.023-3.025,7.925-0.001,10.948l14.652,14.653c1.452,1.452,3.421,2.268,5.475,2.268s4.022-0.815,5.475-2.268
			l25.398-25.398C193.704,212.79,193.704,207.888,190.681,204.865z"/>
	</g>
</g>
<g>
	<g>
		<path d="M190.681,280.421c-3.026-3.022-7.927-3.022-10.95,0l-19.923,19.923l-9.178-9.178c-3.025-3.023-7.927-3.025-10.948,0
			c-3.025,3.023-3.025,7.925-0.001,10.948l14.652,14.653c1.452,1.452,3.421,2.268,5.475,2.268s4.022-0.815,5.475-2.268
			l25.398-25.398C193.704,288.345,193.704,283.443,190.681,280.421z"/>
	</g>
</g>
<g>
	<g>
		<path d="M190.681,366.245c-3.026-3.023-7.927-3.023-10.95,0l-19.923,19.923l-9.178-9.178c-3.025-3.023-7.927-3.023-10.948,0
			c-3.025,3.023-3.025,7.925-0.001,10.948l14.652,14.653c1.452,1.452,3.421,2.268,5.475,2.268s4.022-0.815,5.475-2.268
			l25.398-25.398C193.704,374.17,193.704,369.268,190.681,366.245z"/>
	</g>
</g>
</svg>